<svg width="222" height="214" viewBox="0 0 222 214" fill="none" xmlns="http://www.w3.org/2000/svg">
<line x1="221.086" y1="196.49" x2="140.713" y2="196.49" stroke="#60F6D3" stroke-opacity="0.3" stroke-width="1.90591"/>
<line x1="221.086" y1="64.0286" x2="140.712" y2="64.0286" stroke="#60F6D3" stroke-opacity="0.3" stroke-width="1.90591"/>
<line x1="154.379" y1="62.895" x2="154.379" y2="28.5886" stroke="#60F6D3" stroke-opacity="0.3" stroke-width="1.90591"/>
<line x1="221.086" y1="19.0594" x2="187.732" y2="19.0594" stroke="#60F6D3" stroke-opacity="0.3" stroke-width="1.90591"/>
<line x1="198.215" y1="18.1064" x2="198.215" y2="2.85916" stroke="#60F6D3" stroke-opacity="0.3" stroke-width="1.90591"/>
<line x1="199.168" y1="3.81184" x2="134.367" y2="3.81184" stroke="#60F6D3" stroke-opacity="0.3" stroke-width="1.90591"/>
<line x1="107.684" y1="39.0711" x2="73.3776" y2="39.0711" stroke="#60F6D3" stroke-opacity="0.3" stroke-width="1.90591"/>
<line x1="96.2484" y1="63.848" x2="59.0832" y2="63.848" stroke="#60F6D3" stroke-opacity="0.3" stroke-width="1.90591"/>
<line x1="37.1653" y1="168.673" x2="2.28882e-05" y2="168.673" stroke="#60F6D3" stroke-opacity="0.3" stroke-width="1.90591"/>
<line x1="12.3884" y1="206.792" x2="12.3884" y2="169.626" stroke="#60F6D3" stroke-opacity="0.3" stroke-width="1.90591"/>
<line x1="28.5887" y1="189.638" x2="28.5887" y2="169.626" stroke="#60F6D3" stroke-opacity="0.3" stroke-width="1.90591"/>
<line x1="32.4005" y1="147.708" x2="32.4005" y2="167.72" stroke="#60F6D3" stroke-opacity="0.3" stroke-width="1.90591"/>
<line x1="106.731" y1="11.4355" x2="106.731" y2="38.1183" stroke="#60F6D3" stroke-opacity="0.3" stroke-width="1.90591"/>
<line x1="95.2955" y1="62.895" x2="95.2955" y2="80.0482" stroke="#60F6D3" stroke-opacity="0.3" stroke-width="1.90591"/>
<line x1="95.2955" y1="38.1182" x2="95.2955" y2="50.5066" stroke="#60F6D3" stroke-opacity="0.3" stroke-width="1.90591"/>
<line x1="96.2484" y1="49.5539" x2="121.978" y2="49.5539" stroke="#60F6D3" stroke-opacity="0.3" stroke-width="1.90591"/>
<line x1="147.708" y1="49.5539" x2="154.379" y2="49.5539" stroke="#60F6D3" stroke-opacity="0.3" stroke-width="1.90591"/>
<line x1="189.638" y1="39.0711" x2="155.332" y2="39.0711" stroke="#60F6D3" stroke-opacity="0.3" stroke-width="1.90591"/>
<line x1="198.215" y1="85.7661" x2="198.215" y2="64.8011" stroke="#60F6D3" stroke-opacity="0.3" stroke-width="1.90591"/>
<path d="M59.5662 203.932C57.1795 203.932 55.2714 205.832 55.2714 208.142C55.2714 210.452 57.1795 212.352 59.5662 212.352C61.9529 212.352 63.861 210.452 63.861 208.142C63.861 205.832 61.9529 203.932 59.5662 203.932Z" stroke="#60F6D3" stroke-opacity="0.3" stroke-width="1.90591"/>
<path d="M49.0837 203.932C46.6969 203.932 44.7888 205.832 44.7888 208.142C44.7888 210.452 46.6969 212.352 49.0837 212.352C51.4704 212.352 53.3785 210.452 53.3785 208.142C53.3785 205.832 51.4704 203.932 49.0837 203.932Z" stroke="#60F6D3" stroke-opacity="0.3" stroke-width="1.90591"/>
<path d="M186.843 163.909C184.457 163.909 182.549 165.808 182.549 168.118C182.549 170.428 184.457 172.328 186.843 172.328C189.23 172.328 191.138 170.428 191.138 168.118C191.138 165.808 189.23 163.909 186.843 163.909Z" stroke="#60F6D3" stroke-opacity="0.3" stroke-width="1.90591"/>
<path d="M176.188 163.909C173.801 163.909 171.893 165.808 171.893 168.118C171.893 170.428 173.801 172.328 176.188 172.328C178.575 172.328 180.483 170.428 180.483 168.118C180.483 165.808 178.575 163.909 176.188 163.909Z" stroke="#60F6D3" stroke-opacity="0.3" stroke-width="1.90591"/>
<line x1="221.086" y1="174.029" x2="172.485" y2="174.029" stroke="#60F6D3" stroke-opacity="0.3" stroke-width="1.4975"/>
<path d="M168.123 170.527C166.248 170.527 164.749 172.02 164.749 173.835C164.749 175.65 166.248 177.142 168.123 177.142C169.998 177.142 171.498 175.65 171.498 173.835C171.498 172.02 169.998 170.527 168.123 170.527Z" stroke="#60F6D3" stroke-opacity="0.3" stroke-width="1.4975"/>
<line x1="64.8009" y1="209.607" x2="221.086" y2="209.607" stroke="#60F6D3" stroke-opacity="0.3" stroke-width="1.67618"/>
<path d="M136.123 191.429C138.222 191.429 139.9 193.1 139.9 195.132C139.9 197.163 138.222 198.834 136.123 198.834C134.024 198.834 132.346 197.163 132.346 195.132C132.346 193.1 134.024 191.429 136.123 191.429Z" stroke="#60F6D3" stroke-opacity="0.3" stroke-width="1.67618"/>
<path d="M136.123 58.9684C138.222 58.9684 139.9 60.6388 139.9 62.6706C139.9 64.7024 138.222 66.3728 136.123 66.3728C134.024 66.3728 132.346 64.7024 132.346 62.6706C132.346 60.6388 134.024 58.9684 136.123 58.9684Z" stroke="#60F6D3" stroke-opacity="0.3" stroke-width="1.67618"/>
<path d="M94.3425 80.8865C95.4586 80.8865 96.3633 81.7912 96.3633 82.9072C96.3633 84.0233 95.4586 84.928 94.3425 84.928C93.2265 84.928 92.3217 84.0233 92.3217 82.9072C92.3217 81.7912 93.2265 80.8865 94.3425 80.8865Z" stroke="#60F6D3" stroke-opacity="0.3" stroke-width="1.67618"/>
<path d="M40.0241 165.699C41.1402 165.699 42.0449 166.604 42.0449 167.72C42.0449 168.836 41.1402 169.741 40.0241 169.741C38.9081 169.741 38.0034 168.836 38.0034 167.72C38.0034 166.604 38.9081 165.699 40.0241 165.699Z" stroke="#60F6D3" stroke-opacity="0.3" stroke-width="1.67618"/>
<path d="M28.5886 190.476C29.7046 190.476 30.6094 191.381 30.6094 192.497C30.6094 193.613 29.7046 194.518 28.5886 194.518C27.4726 194.518 26.5678 193.613 26.5678 192.497C26.5678 191.381 27.4726 190.476 28.5886 190.476Z" stroke="#60F6D3" stroke-opacity="0.3" stroke-width="1.67618"/>
<path d="M32.4004 146.87C31.2844 146.87 30.3796 145.966 30.3796 144.85C30.3796 143.734 31.2844 142.829 32.4004 142.829C33.5165 142.829 34.4212 143.734 34.4212 144.85C34.4212 145.966 33.5165 146.87 32.4004 146.87Z" stroke="#60F6D3" stroke-opacity="0.3" stroke-width="1.67618"/>
<path d="M15.3621 209.65C15.3621 210.766 14.4573 211.671 13.3413 211.671C12.2252 211.671 11.3205 210.766 11.3205 209.65C11.3205 208.534 12.2252 207.63 13.3413 207.63C14.4573 207.63 15.3621 208.534 15.3621 209.65Z" stroke="#60F6D3" stroke-opacity="0.3" stroke-width="1.67618"/>
<path d="M125.314 46.58C126.693 46.58 127.811 47.6981 127.811 49.0773C127.811 50.4564 126.693 51.5745 125.314 51.5745C123.934 51.5745 122.816 50.4564 122.816 49.0773C122.816 47.6981 123.934 46.58 125.314 46.58Z" stroke="#60F6D3" stroke-opacity="0.3" stroke-width="1.67618"/>
<path d="M143.42 189.523C144.799 189.523 145.917 190.641 145.917 192.021C145.917 193.4 144.799 194.518 143.42 194.518C142.041 194.518 140.923 193.4 140.923 192.021C140.923 190.641 142.041 189.523 143.42 189.523Z" stroke="#60F6D3" stroke-opacity="0.3" stroke-width="1.67618"/>
<path d="M106.255 5.60295C107.634 5.60295 108.752 6.72101 108.752 8.1002C108.752 9.4794 107.634 10.5975 106.255 10.5975C104.875 10.5975 103.757 9.4794 103.757 8.1002C103.757 6.72101 104.875 5.60295 106.255 5.60295Z" stroke="#60F6D3" stroke-opacity="0.3" stroke-width="1.67618"/>
<path d="M132.937 0.838301C134.316 0.838301 135.434 1.95636 135.434 3.33555C135.434 4.71475 134.316 5.83281 132.937 5.83281C131.558 5.83281 130.44 4.71475 130.44 3.33555C130.44 1.95636 131.558 0.838302 132.937 0.838301Z" stroke="#60F6D3" stroke-opacity="0.3" stroke-width="1.67618"/>
<path d="M153.902 22.7563C155.281 22.7563 156.399 23.8743 156.399 25.2535C156.399 26.6327 155.281 27.7508 153.902 27.7508C152.523 27.7508 151.405 26.6327 151.405 25.2535C151.405 23.8743 152.523 22.7563 153.902 22.7563Z" stroke="#60F6D3" stroke-opacity="0.3" stroke-width="1.67618"/>
<path d="M144.373 46.58C145.752 46.58 146.87 47.6981 146.87 49.0773C146.87 50.4564 145.752 51.5745 144.373 51.5745C142.994 51.5745 141.875 50.4564 141.875 49.0773C141.875 47.6981 142.994 46.58 144.373 46.58Z" stroke="#60F6D3" stroke-opacity="0.3" stroke-width="1.67618"/>
<path d="M194.403 36.0976C196.571 36.0976 198.33 37.8556 198.33 40.0243C198.33 42.1929 196.571 43.951 194.403 43.951C192.234 43.951 190.476 42.1929 190.476 40.0243C190.476 37.8556 192.234 36.0976 194.403 36.0976Z" stroke="#60F6D3" stroke-opacity="0.3" stroke-width="1.67618"/>
<path d="M197.262 86.6041C198.904 86.6041 200.236 87.9355 200.236 89.5778C200.236 91.2202 198.904 92.5516 197.262 92.5516C195.619 92.5516 194.288 91.2202 194.288 89.5778C194.288 87.9355 195.619 86.6041 197.262 86.6041Z" stroke="#60F6D3" stroke-opacity="0.3" stroke-width="1.67618"/>
<path d="M183.92 15.1324C185.563 15.1324 186.894 16.4638 186.894 18.1061C186.894 19.7485 185.563 21.0799 183.92 21.0799C182.278 21.0799 180.947 19.7485 180.947 18.1061C180.947 16.4638 182.278 15.1324 183.92 15.1324Z" stroke="#60F6D3" stroke-opacity="0.3" stroke-width="1.67618"/>
</svg>
